#!OML:ASF F:\VICON\USERDATA\INSTALL\Justin_Nancy\Justin_Nancy.ASF
:FULLY-SPECIFIED
:DEGREES
271
root 0.2731 17.3717 12.5429 1.54054 -5.5348 -1.49032
lowerback 4.08751 2.40158 2.43479
upperback -0.651618 3.37625 1.72171
thorax -2.92438 1.65472 0.188479
lowerneck -16.8136 -3.55103 -9.09147
upperneck 23.0031 -3.89138 5.64246
head 10.4445 -1.92186 2.99547
rclavicle 9.15652e-015 1.98785e-015
rhumerus -27.9963 -12.1011 -79.6867
rradius 34.0747
rwrist 4.0167
rhand -14.8275 10.9614
rfingers 7.12502
rthumb 11.3311 -18.7125
lclavicle 9.15652e-015 1.98785e-015
lhumerus -39.2176 17.8581 79.6696
lradius 20.0782
lwrist -17.3499
lhand -13.2023 25.234
lfingers 7.12502
lthumb 12.8982 414.815
rfemur 12.2837 6.0674 25.2421
rtibia 25.7834
rfoot -6.68681 -2.5816
rtoes -12.6973
lfemur -25.0155 -1.3158 -17.9889
ltibia 21.9091
lfoot -0.734353 0.640381
ltoes -2.86745
272
root 0.293048 17.3887 12.7117 1.54172 -5.32357 -1.26455
lowerback 4.1281 2.34676 2.25457
upperback -0.847897 3.30061 1.68623
thorax -3.15868 1.61668 0.25017
lowerneck -16.438 -3.4609 -9.31118
upperneck 22.9503 -3.78542 5.82974
head 10.3528 -1.8757 3.1169
rclavicle -1.62506e-014 1.98785e-015
rhumerus -28.7512 -12.552 -79.481
rradius 33.9965
rwrist 4.03899
rhand -14.6673 10.5969
rfingers 7.12502
rthumb 11.4856 -19.0684
lclavicle -1.62506e-014 1.98785e-015
lhumerus -39.4323 17.5289 79.7586
lradius 20.3249
lwrist -16.8905
lhand -13.2215 25.1841
lfingers 7.12502
lthumb 12.8797 414.767
rfemur 11.3166 5.78984 24.8541
rtibia 28.1866
rfoot -5.07241 -2.07555
rtoes -12.9344
lfemur -24.5843 -1.005 -18.4857
ltibia 22.0255
lfoot -0.731971 -0.122606
ltoes -2.03923
273
root 0.311591 17.4053 12.8779 1.39661 -5.24746 -1.37396
lowerback 4.22286 2.30768 2.40809
upperback -0.821304 3.26145 1.75831
thorax -3.18082 1.59472 0.237802
lowerneck -16.5885 -3.42023 -9.37974
upperneck 23.026 -3.69785 5.83528
head 10.4032 -1.83941 3.14338
rclavicle 2.29845e-015 -1.19271e-015
rhumerus -29.1687 -12.9826 -79.3094
rradius 33.8319
rwrist 4.17888
rhand -14.6137 10.5578
rfingers 7.12502
rthumb 11.5373 -19.1047
lclavicle 2.29845e-015 -1.19271e-015
lhumerus -39.3235 17.333 79.9602
lradius 20.5385
lwrist -16.2448
lhand -13.6654 24.7715
lfingers 7.12502
lthumb 12.4517 414.381
rfemur 10.389 5.73228 24.8782
rtibia 30.5465
rfoot -3.05088 -1.64733
rtoes -11.6709
lfemur -24.0716 -0.748365 -18.5399
ltibia 22.3354
lfoot -1.26837 -0.595334
ltoes -1.36314
274
root 0.338296 17.4204 13.0521 1.22574 -5.07912 -1.39524
lowerback 4.19645 2.29214 2.67452
upperback -0.675929 3.24763 1.7206
thorax -2.99919 1.58539 0.0566939
lowerneck -16.9079 -3.50891 -9.26733
upperneck 23.0506 -3.77157 5.63479
head 10.474 -1.88231 3.03967
rclavicle -3.31846e-014 -3.18055e-015
rhumerus -29.7042 -13.5622 -79.1866
rradius 34.0807
rwrist 4.08977
rhand -14.5932 10.3075
rfingers 7.12502
rthumb 11.557 -19.3538
lclavicle -3.31846e-014 -3.18055e-015
lhumerus -38.888 17.4159 79.9576
lradius 20.5098
lwrist -16.3189
lhand -13.8275 24.076
lfingers 7.12502
lthumb 12.2954 413.694
rfemur 9.41327 5.50584 24.6807
rtibia 32.8924
rfoot -0.957026 -1.12229
rtoes -10.4902
lfemur -23.5063 -0.398263 -18.7879
ltibia 22.7146
lfoot -1.92167 -1.20545
ltoes 1.00063
275
root 0.367802 17.433 13.2168 1.17425 -4.84392 -1.48148
lowerback 4.20103 2.20938 2.97927
upperback -0.623587 3.15193 1.73852
thorax -2.93425 1.53369 -0.0871111
lowerneck -17.0489 -3.52313 -9.32165
upperneck 22.9695 -3.74365 5.57551
head 10.4696 -1.87827 3.02903
rclavicle -1.36416e-014 2.26615e-014
rhumerus -30.1215 -14.0081 -79.0517
rradius 34.1497
rwrist 4.19848
rhand -14.3611 9.63778
rfingers 7.12502
rthumb 11.781 -20.0109
lclavicle -1.36416e-014 2.26615e-014
lhumerus -38.6635 17.2375 80.2048
lradius 20.9403
lwrist -15.8766
lhand -13.7191 23.9799
lfingers 7.12502
lthumb 12.3999 413.592
rfemur 8.20867 5.22041 24.5016
rtibia 35.2754
rfoot 1.12571 -0.440531
rtoes -9.57271
lfemur -23.0483 -0.120574 -18.9721
ltibia 23.0352
lfoot -2.35629 -2.11047
ltoes 4.0716
276
root 0.390627 17.4518 13.3814 1.0572 -4.83103 -1.24524
lowerback 4.17198 2.19665 2.81362
upperback -0.54469 3.12181 1.71499
thorax -2.84442 1.52298 -0.0141467
lowerneck -17.2525 -3.53587 -9.54128
upperneck 23.0754 -3.73021 5.76157
head 10.5546 -1.86776 3.13617
rclavicle 1.84124e-014 1.11319e-014
rhumerus -30.4002 -14.354 -78.9324
rradius 33.9315
rwrist 4.3568
rhand -14.1234 9.09244
rfingers 7.12502
rthumb 12.0101 -20.543
lclavicle 1.84124e-014 1.11319e-014
lhumerus -38.5505 16.9083 80.5861
lradius 21.7228
lwrist -15.3244
lhand -13.2928 24.9928
lfingers 7.12502
lthumb 12.811 414.58
rfemur 6.94125 5.17009 23.9911
rtibia 37.7556
rfoot 3.38924 0.194313
rtoes -6.63929
lfemur -22.3992 -0.0166889 -19.4226
ltibia 23.2048
lfoot -2.68683 -2.76092
ltoes 6.03354
277
root 0.403788 17.4671 13.546 0.727693 -4.91551 -0.816035
lowerback 4.3758 2.25273 2.37667
upperback -0.434646 3.17591 1.6238
thorax -2.86244 1.55658 0.125639
lowerneck -17.3982 -3.55085 -9.608
upperneck 23.1214 -3.73797 5.83522
head 10.603 -1.86681 3.17315
rclavicle -7.70291e-015 -6.36111e-015
rhumerus -30.8033 -14.5074 -78.8699
rradius 33.7227
rwrist 4.3057
rhand -14.0928 9.11751
rfingers 7.12502
rthumb 12.0396 -20.5162
lclavicle -7.70291e-015 -6.36111e-015
lhumerus -38.2104 16.4916 80.9486
lradius 22.1336
lwrist -14.5112
lhand -13.1648 26.1768
lfingers 7.12502
lthumb 12.9344 415.756
rfemur 5.84142 5.30234 23.4119
rtibia 40.325
rfoot 6.06192 0.656128
rtoes -2.98224
lfemur -21.4647 0.0598633 -20.0484
ltibia 23.2026
lfoot -2.83726 -2.92194
ltoes 6.23812
278
root 0.414629 17.4819 13.6898 0.490254 -4.94316 -0.510553
lowerback 4.87732 2.29109 2.0569
upperback -0.477554 3.22467 1.52001
thorax -3.19925 1.58142 0.17042
lowerneck -17.1741 -3.5653 -9.60815
upperneck 22.8381 -3.7931 5.91702
head 10.4629 -1.88239 3.19107
rclavicle 3.41164e-014 1.19271e-014
rhumerus -31.418 -14.7263 -78.7858
rradius 33.5784
rwrist 4.34157
rhand -14.136 9.93794
rfingers 7.12502
rthumb 11.998 -19.6982
lclavicle 3.41164e-014 1.19271e-014
lhumerus -38.0168 15.6358 81.3666
lradius 22.6739
lwrist -13.2032
lhand -13.2112 26.4377
lfingers 7.12502
lthumb 12.8896 416.02
rfemur 4.485 5.41851 23.0197
rtibia 42.9768
rfoot 8.66238 1.11682
rtoes -0.0715635
lfemur -20.643 0.155219 -20.5225
ltibia 22.9722
lfoot -2.54979 -2.85012
ltoes 6.93742
279
root 0.429242 17.5038 13.8301 0.383224 -4.87952 -0.169914
lowerback 5.29264 2.24426 1.72422
upperback -0.61817 3.15491 1.4255
thorax -3.59128 1.54777 0.242251
lowerneck -16.8765 -3.49046 -9.65694
upperneck 22.6444 -3.72308 6.01626
head 10.332 -1.84523 3.24352
rclavicle 1.19892e-014 1.59028e-015
rhumerus -32.1552 -14.779 -78.716
rradius 33.5275
rwrist 4.43333
rhand -13.9367 10.6469
rfingers 7.12502
rthumb 12.1901 -18.9779
lclavicle 1.19892e-014 1.59028e-015
lhumerus -37.9649 14.8964 81.6656
lradius 23.1055
lwrist -12.3236
lhand -12.9679 26.2127
lfingers 7.12502
lthumb 13.1242 415.78
rfemur 2.92044 5.39058 22.5156
rtibia 45.6397
rfoot 11.1017 1.32499
rtoes 3.90317
lfemur -19.9261 -0.0430919 -21.0371
ltibia 22.6517
lfoot -2.26138 -2.67732
ltoes 7.79342
280
root 0.438266 17.5287 13.9784 0.235662 -4.90013 0.267125
lowerback 5.59229 2.2261 1.22978
upperback -0.676775 3.10191 1.29593
thorax -3.8397 1.52818 0.374668
lowerneck -17.0248 -3.45139 -9.6162
upperneck 22.7566 -3.68694 6.08573
head 10.3976 -1.81611 3.26845
rclavicle -3.75579e-014 -6.36111e-015
rhumerus -32.5835 -14.6595 -78.8241
rradius 33.3528
rwrist 4.31176
rhand -13.6791 10.2507
rfingers 7.12502
rthumb 12.4385 -19.3591
lclavicle -3.75579e-014 -6.36111e-015
lhumerus -37.8262 14.1947 81.839
lradius 23.4735
lwrist -12.0868
lhand -12.6212 26.1944
lfingers 7.12502
lthumb 13.4583 415.74
rfemur 1.35946 5.47633 21.9547
rtibia 48.2418
rfoot 13.6189 1.11695
rtoes 7.54545
lfemur -19.1116 -0.131845 -21.6649
ltibia 22.2943
lfoot -2.05739 -2.56017
ltoes 8.28783
281
root 0.447207 17.5473 14.1295 0.0313474 -4.96366 0.601255
lowerback 5.78737 2.22435 0.822118
upperback -0.573792 3.07059 1.23453
thorax -3.86073 1.5205 0.535789
lowerneck -17.4129 -3.47188 -9.68124
upperneck 22.9216 -3.68872 6.18097
head 10.5353 -1.80739 3.3152
rclavicle 3.03519e-014 1.59028e-014
rhumerus -32.5569 -14.3933 -78.9958
rradius 32.7912
rwrist 4.22503
rhand -13.9044 9.45749
rfingers 7.12502
rthumb 12.2213 -20.1655
lclavicle 3.03519e-014 1.59028e-014
lhumerus -37.6648 13.6244 82.115
lradius 24.225
lwrist -11.8454
lhand -12.7454 26.0302
lfingers 7.12502
lthumb 13.3386 415.583
rfemur -0.080203 5.47024 21.4952
rtibia 50.7334
rfoot 15.5466 1.08719
rtoes 9.70247
lfemur -18.2227 -0.134128 -22.2218
ltibia 22.0127
lfoot -1.82538 -2.45783
ltoes 7.66783
282
root 0.467435 17.5643 14.2877 -0.113793 -4.86423 1.00848
lowerback 5.70557 2.16546 0.547908
upperback -0.425021 2.96433 1.10284
thorax -3.66672 1.47282 0.569559
lowerneck -17.4166 -3.4584 -9.84898
upperneck 22.7609 -3.68204 6.43833
head 10.4848 -1.78674 3.43517
rclavicle -4.00054e-014 -5.56597e-015
rhumerus -32.5421 -14.2396 -79.1323
rradius 32.3452
rwrist 4.39531
rhand -13.7023 9.01464
rfingers 7.12502
rthumb 12.4161 -20.5966
lclavicle -4.00054e-014 -5.56597e-015
lhumerus -37.4029 12.5264 82.6885
lradius 24.9671
lwrist -10.5967
lhand -13.9728 24.8825
lfingers 7.12502
lthumb 12.1553 414.509
rfemur -1.44576 5.04567 20.7683
rtibia 53.0601
rfoot 16.4813 1.13732
rtoes 10.8311
lfemur -17.3894 -0.482225 -22.8908
ltibia 21.8432
lfoot -1.7989 -2.193
ltoes 7.54474
283
root 0.483853 17.5754 14.4407 -0.173727 -4.79511 1.15168
lowerback 5.58653 2.09175 0.431077
upperback -0.235828 2.85379 1.09994
thorax -3.40875 1.42077 0.650455
lowerneck -17.4309 -3.47973 -9.94111
upperneck 22.3493 -3.68862 6.51658
head 10.3423 -1.7836 3.46971
rclavicle -1.48467e-014 -2.22639e-014
rhumerus -32.3103 -14.1878 -79.232
rradius 31.8226
rwrist 4.90434
rhand -13.1798 9.1274
rfingers 7.12502
rthumb 12.9199 -20.4526
lclavicle -1.48467e-014 -2.22639e-014
lhumerus -36.7685 11.8069 83.1689
lradius 25.3755
lwrist -9.81015
lhand -14.3601 24.6149
lfingers 7.12502
lthumb 11.7818 414.264
rfemur -2.85064 4.62429 20.4017
rtibia 55.2658
rfoot 16.4337 0.833036
rtoes 9.63628
lfemur -16.765 -0.83072 -23.2235
ltibia 21.7933
lfoot -2.35596 -1.60986
ltoes 6.28687
